<?xml version="1.0" encoding="utf-8"?>
<!-- Generator: Adobe Illustrator 24.1.0, SVG Export Plug-In . SVG Version: 6.00 Build 0)  -->
<svg version="1.1" id="Layer_1" xmlns="http://www.w3.org/2000/svg" xmlns:xlink="http://www.w3.org/1999/xlink" x="0px" y="0px"
	 viewBox="0 0 612 792" style="enable-background:new 0 0 612 792;" xml:space="preserve">
<style type="text/css">
	.st0{fill:#BC8954;}
	.st1{fill:#605D2B;}
	.st2{fill:#6D6E71;}
	.st3{fill:#AB6739;}
	.st4{fill:#605D2B;stroke:#605D2B;stroke-miterlimit:10;}
</style>
<g>
	<g>
		
		<path class="st0" d="M444.06,341.32v4.58c0,0.48-0.21,0.95-0.59,1.3l-1.24,1.16c-0.4,0.37-0.61,0.87-0.59,1.38l0.38,8.2
			c0.01,0.26,0.26,0.46,0.56,0.46h0.89c0.29,0,0.54-0.2,0.56-0.45l0.54-6.83c0,0,1.25-0.28,2.98-1.05l0.46,6.43
			c0.02,0.22,0.23,0.4,0.49,0.4h0.82c0.25,0,0.46-0.16,0.49-0.37l0.7-4.87c2.22-0.62,3.39-2.03,3.87-2.77
			c2.27,0.32,5.57,0.23,9.3-1.62l0.28,10.66c0.01,0.26,0.25,0.47,0.56,0.47h1.18c0.29,0,0.53-0.19,0.56-0.44l1.25-11.93
			c0,0,0.49-0.13,1.27-0.47l0.47,10.79c0.01,0.31,0.31,0.55,0.66,0.55h0.71c0.36,0,0.65-0.24,0.66-0.55l0.61-12.53
			c3.05-2.14,6.65-6.14,7.01-13.19l4.26-0.5c0.58-0.07,1.01-0.49,1.01-0.99v-0.8c0-0.46-0.36-0.87-0.89-0.97
			c-1.02-0.21-2.71-0.8-3.94-2.54c-0.13-0.19-0.31-0.34-0.51-0.46c-0.33-2.95-3.92-4.38-3.92-4.38c-3.56-1.64-2.95-4.62-2.26-6.28
			c0.18-0.42-0.43-0.76-0.81-0.45c-1.61,1.32-1.78,3.65-1.78,3.65c-0.04,1.63,1.02,2.76,2.01,3.46c-3.68-1.12-3.69-4.08-3.35-5.79
			c0.09-0.44-0.58-0.68-0.89-0.33c-1.32,1.54-1.01,3.86-1.01,3.86c0.42,2.34,2.95,3.31,3.97,3.6c0.42,0.12,0.84,0.26,1.22,0.46
			c1.21,0.63,1.77,1.4,2.02,1.95h-4.41c0,0,0.71,2.9,4.71,1.69c-0.04,3.14-0.39,9.96-7.98,10.54l-17.16,1.06
			c0,0-1.96-0.62-3.35-2.02c-0.39-0.4-1.13-0.18-1.19,0.33c-0.12,0.97,0.02,2.24,1.16,3.12l-0.98,0.87
			C444.33,340.14,444.06,340.72,444.06,341.32z M477.3,327.57c-0.51,0-0.92-0.36-0.92-0.79c0-0.44,0.41-0.79,0.92-0.79
			c0.51,0,0.92,0.36,0.92,0.79C478.22,327.21,477.81,327.57,477.3,327.57z"/>
		<g>
			<g>
				<g>
					<path class="st1" d="M377.54,291.52c-0.79,0-1.61-0.17-2.31-0.52c-1.83-0.91-2.29-2.72-1.02-4.04
						c9.68-10,19.05-15.06,27.85-15.06c4.92,0,6.17-2.05,8.5-7.91c2.06-5.19,4.62-11.64,14.02-15.01c2.84-1.02,5.74-1.89,8.62-2.58
						c2.15-0.52,4.43,0.31,5.14,1.82c0.71,1.52-0.42,3.17-2.55,3.68c-2.53,0.61-5.08,1.38-7.6,2.28c-6.2,2.22-7.97,6.68-9.84,11.4
						c-2.15,5.41-4.81,12.13-16.3,12.13c-5.82,0-13.34,4.46-21.19,12.57C380.09,291.08,378.82,291.52,377.54,291.52z"/>
				</g>
				<g>
					<path class="st1" d="M469.4,255.41c-1.45,0-3.35-0.37-5.32-1.78c-3.03-2.17-7.69-3.38-13.47-3.49c-2.24-0.05-4-1.38-3.95-2.98
						c0.06-1.6,1.9-2.86,4.16-2.83c7.56,0.15,13.9,1.8,18.4,4.79c0.73-0.78,1.67-2.02,2.41-3.02c4.16-5.55,11.14-14.85,27.74-14.85
						c2.24,0,4.06,1.3,4.06,2.9c0,1.6-1.82,2.9-4.06,2.9c-11.75,0-16.65,6.54-20.59,11.79c-2.56,3.41-4.57,6.1-8.5,6.51
						C470.01,255.38,469.71,255.41,469.4,255.41z"/>
				</g>
				<g>
					<path class="st1" d="M112.32,283.5c-0.29,0-0.59-0.03-0.89-0.07c-2.19-0.35-3.57-1.9-3.07-3.47
						c3.22-10.32,9.54-14.85,15.12-18.84c4.11-2.95,8.37-3.56,11.8-4.05c4.52-0.65,7.78-1.11,11.77-6.82
						c5.17-7.41,15.41-7.41,22.89-7.41c8.81,0,9.12-0.5,9.12-2.9c0-13.96,18.91-20.32,36.5-20.32c17.87,0,35.03,6.46,43.41,12.46
						c1.89,1.35,3.44,1.03,11.45-3.87c4.31-2.63,9.67-5.92,16.31-8.29c6.86-2.46,14.44-2.46,21.3,0c2,0.72,2.82,2.46,1.82,3.89
						c-1,1.44-3.43,2-5.44,1.3c-3.21-1.15-8.25-2.09-14.05,0c-5.75,2.06-10.49,4.95-14.67,7.51c-6.93,4.24-14.79,9.05-22.45,3.56
						c-7.47-5.35-22.81-10.76-37.68-10.76c-13.67,0-28.39,4.54-28.39,14.52c0,8.71-10.37,8.71-17.23,8.71
						c-7.9,0-12.9,0.28-15.63,4.2c-5.75,8.24-12.23,9.17-17.43,9.91c-2.95,0.42-5.28,0.76-7.66,2.46
						c-5.28,3.78-10.25,7.35-12.96,16.02C115.85,282.59,114.17,283.5,112.32,283.5z"/>
				</g>
				<g>
					<path class="st1" d="M365.61,277.7c-1.68,0-3.25-0.75-3.83-1.95c-2.47-5.08-5.9-8.44-10.19-9.97
						c-17.05-6.1-34.68-12.42-34.68-25.82c0-1.62-0.38-3.27-1.12-4.91c-0.7-1.53,0.48-3.16,2.6-3.66c2.15-0.5,4.43,0.34,5.11,1.86
						c1,2.22,1.51,4.47,1.51,6.7c0,9.82,14.67,15.07,30.2,20.63c6.24,2.23,11.02,6.69,14.22,13.26c0.74,1.51-0.38,3.17-2.49,3.7
						C366.5,277.65,366.05,277.7,365.61,277.7z"/>
				</g>
				<g>
					<path class="st1" d="M499.38,298.75c-0.11,0-0.23,0-0.34-0.01l-121.9-7.27c-47.98-2.86-96.79-2.86-144.78,0l-121.89,7.27
						c-2.31,0.18-4.19-1.05-4.37-2.65c-0.19-1.6,1.47-3,3.7-3.13l121.9-7.27c48.43-2.89,97.69-2.89,146.13,0l121.9,7.27
						c2.23,0.13,3.89,1.53,3.7,3.13C503.25,297.6,501.47,298.75,499.38,298.75z"/>
				</g>
				<g>
					<path class="st1" d="M385.85,382.08c-0.02,0-0.05,0-0.06,0c-60.9-0.69-141.85-4.75-141.85-31.8
						c0-17.34,58.28-40.08,83.34-49.05c18.21-6.52,48.39-15.26,48.7-15.34c2.06-0.6,4.43,0.12,5.27,1.6
						c0.84,1.49-0.16,3.18-2.24,3.78c-0.3,0.09-30.18,8.74-48.1,15.16c-54.47,19.5-78.85,36.08-78.85,43.86
						c0,16.24,45.04,24.98,133.87,26c2.24,0.03,4.03,1.35,3.99,2.95C389.87,380.81,388.05,382.08,385.85,382.08z"/>
				</g>
				<g>
					<path class="st1" d="M496.82,428.67c-1.77,0-3.4-0.84-3.9-2.13c-7.94-20.45-32.26-44.33-74.64-44.33c-2.24,0-4.06-1.3-4.06-2.9
						s1.82-2.9,4.06-2.9c46.94,0,73.75,26.17,82.46,48.58c0.6,1.55-0.67,3.14-2.83,3.58C497.56,428.63,497.19,428.67,496.82,428.67z
						"/>
				</g>
				<g>
					<path class="st1" d="M430.1,428.67c-1.47,0-2.89-0.58-3.6-1.57c-9.15-12.67-35.91-27.46-81.2-27.46
						c-61.04,0-133.81-6.55-133.81-37.74c0-13.05,1.71-19.79,42.07-42.91c13.67-7.83,35.82-16.43,65.82-25.57
						c2.06-0.63,4.44,0.06,5.32,1.53c0.88,1.47-0.08,3.18-2.14,3.81c-29.33,8.93-50.84,17.27-63.93,24.77
						c-39.02,22.35-39.02,27.37-39.02,38.38c0,27.79,78.75,31.94,125.7,31.94c48.93,0,78.2,16.48,88.41,30.61
						c1.03,1.42,0.25,3.18-1.74,3.91C431.37,428.56,430.72,428.67,430.1,428.67z"/>
				</g>
				<g>
					<path class="st1" d="M150.67,324.15c-1.04,0-2.08-0.28-2.86-0.85l-8.11-5.81c-1.58-1.13-1.58-2.97,0-4.11
						c1.58-1.13,4.15-1.13,5.73,0l5.25,3.76l5.25-3.76c1.58-1.13,4.15-1.13,5.73,0c1.58,1.13,1.58,2.97,0,4.11l-8.11,5.81
						C152.74,323.87,151.7,324.15,150.67,324.15z"/>
				</g>
				<g>
					<path class="st1" d="M142.56,399.63c-1.04,0-2.08-0.28-2.86-0.85l-8.11-5.81c-1.58-1.13-1.58-2.97,0-4.11
						c1.58-1.13,4.15-1.13,5.73,0l5.25,3.76l5.25-3.76c1.58-1.13,4.15-1.13,5.73,0c1.58,1.13,1.58,2.97,0,4.11l-8.11,5.81
						C144.63,399.35,143.59,399.63,142.56,399.63z"/>
				</g>
				<g>
					<path class="st1" d="M377.74,318.34c-1.04,0-2.08-0.28-2.86-0.85l-8.11-5.81c-1.58-1.13-1.58-2.97,0-4.11
						c1.58-1.13,4.15-1.13,5.73,0l5.25,3.76l5.25-3.76c1.58-1.13,4.15-1.13,5.73,0c1.58,1.13,1.58,2.97,0,4.11l-8.11,5.81
						C379.81,318.06,378.77,318.34,377.74,318.34z"/>
				</g>
				<g>
					<path class="st1" d="M426.39,335.77c-1.04,0-2.08-0.28-2.86-0.85l-8.11-5.81c-1.58-1.13-1.58-2.97,0-4.11
						c1.58-1.13,4.15-1.13,5.73,0l5.25,3.76l5.25-3.76c1.58-1.13,4.15-1.13,5.73,0c1.58,1.13,1.58,2.97,0,4.11l-8.11,5.81
						C428.47,335.48,427.43,335.77,426.39,335.77z"/>
				</g>
				<g>
					<path class="st1" d="M296.64,289.31c-1.04,0-2.08-0.28-2.86-0.85l-8.11-5.81c-1.58-1.13-1.58-2.97,0-4.11
						c1.58-1.13,4.15-1.13,5.73,0l5.25,3.76l5.25-3.76c1.58-1.13,4.15-1.13,5.73,0c1.58,1.13,1.58,2.97,0,4.11l-8.11,5.81
						C298.71,289.03,297.68,289.31,296.64,289.31z"/>
				</g>
				<g>
					<path class="st1" d="M450.72,295.12c-1.04,0-2.08-0.28-2.86-0.85l-8.11-5.81c-1.58-1.13-1.58-2.97,0-4.11
						c1.58-1.14,4.15-1.13,5.73,0l5.25,3.76l5.25-3.76c1.58-1.13,4.15-1.13,5.73,0c1.58,1.13,1.58,2.97,0,4.11l-8.11,5.81
						C452.8,294.83,451.76,295.12,450.72,295.12z"/>
				</g>
				<g>
					<path class="st1" d="M231.77,196.41h-24.33c-2.24,0-4.06-1.3-4.06-2.9v-5.81c0-8.01-9.09-14.52-20.28-14.52
						s-20.28,6.51-20.28,14.52v5.81c0,1.6-1.82,2.9-4.06,2.9s-4.06-1.3-4.06-2.9v-2.9c0-3.2-3.64-5.81-8.11-5.81
						c-4.47,0-8.11,2.61-8.11,5.81v2.9c0,1.6-1.82,2.9-4.06,2.9h-24.33c-2.24,0-4.06-1.3-4.06-2.9c0-1.6,1.82-2.9,4.06-2.9h20.28
						c0-6.4,7.27-11.61,16.22-11.61c3.58,0,6.89,0.83,9.58,2.25c3.78-8.05,14.41-13.86,26.91-13.86c15.65,0,28.39,9.12,28.39,20.32
						v2.9h20.28c2.24,0,4.06,1.3,4.06,2.9C235.82,195.11,234.01,196.41,231.77,196.41z"/>
				</g>
				<g>
					<path class="st1" d="M418.28,231.25c-33.54,0-60.83-19.54-60.83-43.55s27.29-43.55,60.83-43.55s60.83,19.54,60.83,43.55
						S451.82,231.25,418.28,231.25z M418.28,149.95c-29.06,0-52.72,16.93-52.72,37.74s23.64,37.74,52.72,37.74
						c29.06,0,52.72-16.93,52.72-37.74S447.35,149.95,418.28,149.95z"/>
				</g>
				<g>
					<path class="st1" d="M280.42,196.41h-24.33c-2.24,0-4.06-1.3-4.06-2.9c0-1.6,1.82-2.9,4.06-2.9h24.33c2.24,0,4.06,1.3,4.06,2.9
						C284.47,195.11,282.66,196.41,280.42,196.41z"/>
				</g>
			</g>
			<g>
				<path class="st1" d="M209.26,416.03c-1.03,0-2.06-0.35-2.84-1.05l-8.06-7.11c-1.57-1.39-1.57-3.64,0-5.03
					c1.57-1.39,4.12-1.39,5.7,0l5.21,4.6l5.21-4.6c1.57-1.39,4.12-1.39,5.7,0c1.58,1.39,1.57,3.64,0,5.03l-8.06,7.11
					C211.32,415.69,210.29,416.03,209.26,416.03z"/>
			</g>
		</g>
		<path class="st0" d="M395.4,305.88v4.58c0,0.48-0.21,0.95-0.59,1.3l-1.24,1.16c-0.4,0.37-0.61,0.87-0.59,1.38l0.38,8.2
			c0.01,0.26,0.26,0.46,0.56,0.46h0.89c0.29,0,0.54-0.2,0.56-0.45l0.54-6.83c0,0,1.25-0.28,2.98-1.05l0.46,6.43
			c0.02,0.22,0.23,0.4,0.49,0.4h0.82c0.25,0,0.46-0.16,0.49-0.37l0.7-4.87c2.22-0.62,3.39-2.03,3.87-2.77
			c2.27,0.32,5.57,0.23,9.3-1.62l0.28,10.66c0.01,0.26,0.25,0.47,0.56,0.47h1.18c0.29,0,0.53-0.19,0.56-0.44l1.25-11.93
			c0,0,0.49-0.13,1.27-0.47l0.47,10.79c0.01,0.31,0.31,0.55,0.66,0.55h0.71c0.36,0,0.65-0.24,0.66-0.55l0.61-12.53
			c3.05-2.14,6.65-6.14,7.01-13.19l4.26-0.5c0.58-0.07,1.01-0.49,1.01-0.99v-0.8c0-0.46-0.36-0.87-0.89-0.97
			c-1.02-0.21-2.71-0.8-3.94-2.54c-0.13-0.19-0.31-0.34-0.51-0.46c-0.33-2.95-3.92-4.38-3.92-4.38c-3.56-1.64-2.95-4.62-2.26-6.28
			c0.18-0.42-0.43-0.76-0.81-0.45c-1.61,1.32-1.78,3.65-1.78,3.65c-0.04,1.63,1.02,2.76,2.01,3.46c-3.68-1.12-3.69-4.08-3.35-5.79
			c0.09-0.44-0.58-0.68-0.89-0.33c-1.32,1.54-1.01,3.86-1.01,3.86c0.42,2.34,2.95,3.31,3.97,3.6c0.42,0.12,0.84,0.26,1.22,0.46
			c1.21,0.63,1.77,1.4,2.02,1.95h-4.41c0,0,0.71,2.9,4.71,1.69c-0.04,3.14-0.39,9.96-7.98,10.54l-17.16,1.06
			c0,0-1.96-0.62-3.35-2.02c-0.39-0.4-1.13-0.18-1.19,0.33c-0.12,0.97,0.02,2.24,1.16,3.12l-0.98,0.87
			C395.67,304.7,395.4,305.28,395.4,305.88z M428.63,292.13c-0.51,0-0.92-0.36-0.92-0.79c0-0.44,0.41-0.79,0.92-0.79
			c0.51,0,0.92,0.36,0.92,0.79S429.14,292.13,428.63,292.13z"/>
		<path class="st2" d="M197.35,311.84c-0.15-0.88-0.44-0.59-0.27-1.38c0.05-0.22,0.17-0.43,0.27-0.81c0.11-0.39,0.44-1.04,0.55-1.42
			c0.13-0.48,0-0.69,0.12-1.18c0.12-0.49,0.41-0.7,0.51-1.2c0.06-0.31,0.87-0.79,0.95-1.11c0.13-0.54,0.75-0.98,1.23-1.37
			c0.51-0.42,1.15-1.67,1.51-2.25c0.27-0.44,1.29-1.04,1.92-1.45c1.06-1.17,1.69-2,3.64-2.69c2.02-0.71,3.86-0.5,6.03-0.54
			c1.32-0.03,2.6,0,3.92,0c1.17,0,1.81-0.47,2.97-0.31c1.13,0.15,1.74-0.31,2.83-0.62c0.62-0.18,1.4-0.21,2.08-0.21
			c0.37,0,0.86,0.08,1.17-0.1c-0.08-0.17-0.28,0.03-0.45-0.19c-0.17-0.21,2.16-0.23,3.24-0.35c1.08-0.12,1.6-0.88,2.37-1.03
			c0.77-0.15,3.11-1.51,3.76-1.79c0.37-0.16,1.64-0.71,2.86-1.17c0.48-0.18,0.16-0.24,0.63-0.54c0.47-0.3,1.77-0.55,2.11-0.67
			c0.33-0.12,1.32-0.29,2.2-1.33c0,0,1.14-1.08,1.27-0.78c0.1,0.22,0.09,0.74,0.13,0.93c0.02,0.07,0.04,0.1,0.09,0.04
			c0.3-0.2,2.19-1.09,2.32-0.88c0.14,0.21-1.67,2.44-1.53,2.54c0.14,0.1,0.3,0.06,0.41,0.2c0,0,0.77,0.63,0.89,0.76
			c0.2,0.22,0.86,0.84,0.86,0.84s0.37,0.84,0.43,1.34l0.07,0.37l0.29,0.44c1.04,0.79,1.78,1.52,2.04,1.63
			c0.26,0.1,1.53,0.7,1.8,0.89c0.39,0.26-0.02,0.84-0.35,0.98c-0.11,0.12-0.21,0.26-0.33,0.33c-0.81,0.49-0.99,0.21-1.3,0.26
			l-0.59-0.07c-0.22-0.05-0.27-0.11-0.36-0.14c-0.27-0.09-0.67-0.28-0.96-0.41c-0.29-0.13-1.25-0.86-1.45-0.96
			c-0.19-0.11-0.73-0.36-0.99-0.42c-0.27-0.07-0.48-0.02-0.48-0.02s0.41,0.28,0.53,0.35s0.54,0.39,0.76,0.61s0.87,1,0.87,1
			s0.41,0.18,0.52,0.27c0.17,0.14,0.38,0.34,0.38,0.34s-0.09,0,0.1-0.11c0.19-0.11,0.22-0.08,0.15,0.13
			c-0.07,0.22-0.05,0.13-0.05,0.13s0.23,0.27,0.39,0.5c0.25,0.36,0.36,0.77,0.37,0.78c0.06,0.31-0.17,0.32-0.49-0.07
			c-0.02-0.04-0.22-0.28-0.22-0.28s-0.06-0.08-0.11,0.03c-0.05,0.11,0.05,0.14-0.06,0.22c-0.4,0.19-0.73,0.31-0.98,0.26
			c-0.56-0.12-0.87-0.53-1.32-0.84c-0.85-0.59-1.05-0.78-1.36-0.96c-0.37-0.22-0.49-0.22-0.61,0.73c-0.06,0.48,0.12,0.75,0.05,1.06
			c-0.04,0.2-0.1-0.42-0.16-0.22c-0.14,0.47-0.48,0.97-0.48,0.97l-0.05-0.25c0,0-0.21,0.21-0.36,0.38c-0.39,0.49-0.27,0-0.34-0.2
			c0,0,0.09,0.35-0.36,0.8c-0.1-0.22-0.43,0.26-0.82,0.7c-0.65,0.73-1.84,2.06-1.86,1.82c-0.07-0.71-0.17-0.03-0.17-0.03
			c-0.77,0.58-1.91,2.22-2.71,3.07c-0.09,0.1-0.24,0.1-0.32,0.04c-0.09-0.06-0.3-0.02-0.78,0.39c-0.06,0.08-0.26,0.54-0.32,0.62
			c-0.15,0.22-0.65,0.11-0.76,0.35c-0.09,0.19-0.17,0.38-0.26,0.55c-0.28,0.53-0.5,0.63-0.78,1.2c-0.27,0.55-0.4,1.39-0.44,2.01
			c-0.13,1.9,0.08,3.24,0.23,4.22c0.13,0.85,0.45,1.6,0.53,2.47c0.06,0.63,0.11,1.19,0.33,1.79c0.15,0.41,0.31,0.71,0.44,1.12
			c0.12,0.35,0.54,0.94,0.83,1.13c0.46,0.3,0.95,0.09,1.49,0.19c0.12,0.02,0.1,0.07,0.36,0.19l0.39,0.07
			c0.29,0.14,0.48,0.42,0.54,0.57c0.12,0.3,0,0.34-0.26,0.41c-0.2,0.05-0.71,0.08-0.96,0.09c-0.53,0.02-1.06-0.11-1.54,0.01
			c-0.09,0.02-0.22,0.16-0.47,0.18c-0.37,0.03-0.93-0.01-1.15-0.01c-0.45,0-0.68-0.03-1.13-0.03c-0.7,0-0.72,0.1-1.37-0.04
			c-0.8-0.18-1.88,0.01-2.17-0.2c-0.09-0.06-0.06-0.43-0.23-0.64c-0.28-0.36-0.17-0.51-0.31-0.6c-0.14-0.09-0.27,0.32-0.36,0.09
			c-0.08-0.23-0.67-1.47-0.95-2.05c-0.28-0.58-0.37-0.67-0.64-1.25c-0.15-0.33-0.33-0.62-0.34-0.96c0.16,0.79-0.19-1.05-0.14-0.96
			c-0.29-0.6-0.09-0.04-0.32-0.67c-0.43-1.19-0.27-2.38-0.53-3.63c-0.11-0.51-0.44-0.95-0.55-1.46c-0.05-0.25,0.04-0.68-0.09-0.89
			c-0.14-0.25-0.77-0.49-1.03-0.7c-0.41-0.34-0.82-0.58-1.3-0.83c-0.47-0.26-0.8-0.67-1.3-0.88c-0.51-0.22-0.63-0.1-1.19-0.03
			c-0.91,0.11-1.66-0.16-2.49-0.22c-0.93-0.07-0.73,0.15-0.96,0.13l-0.54-0.04c-0.45,0.04-1.06-0.24-1.51-0.09
			c-0.7,0.22-0.7,1.35-1.03,1.88c-0.84,1.33-2.6,2.87-3.23,3.13c-0.68,0.28-0.97,1.02-1.59,1.45c-0.88,0.6-1.38,1.35-1.85,2.31
			c-0.63,1.3-0.38,2.49,0.18,3.71c0.29,0.64,0.46,1,1.05,1.35c0.28,0.17,0.97-0.04,1.27,0.11c0.16,0.08,0.46,0.28,0.59,0.34
			c0.36,0.17,1.01,0.51,0.73,0.89c-0.35,0.48-1.18,0.05-1.73,0.19c-0.56,0.14-1.03-0.08-1.64-0.08c-0.46,0-1.33,0.05-1.64-0.26
			c-0.19-0.19-0.23-0.31-0.31-0.53c-0.08-0.25-0.12-0.57-0.29-0.8c-0.13-0.18-0.41-0.5-0.47-0.66c-0.1-0.27,0.01-0.64-0.11-0.88
			c-0.2-0.39-0.78-0.98-0.97-1.44c-0.14-0.32,0.01-1.28-0.48-1.35c0.04-0.51,0.12-0.73-0.13-1.05c-0.23-0.31,0.46-0.66,0.64-0.99
			c0.24-0.44,0.47-0.78,0.9-1.12c0.5-0.39,1.01-0.89,1.68-1.35c-1.29,0.45-2.65,1.28-3.5,2.27c-0.76,0.89-1.49,1.92-1.64,3.03
			c-0.13,0.94-0.68,2.47,0.01,2.97c0.3,0.21,0.61,0.24,0.83,0.45c0.15,0.14,0.3,0.48,0.49,0.76c0.07,0.11,0.24,0.22,0.27,0.32
			c0.06,0.17,0.15,0.36,0.07,0.48c-0.07,0.1-0.33,0.21-0.52,0.26c-0.09,0.03-0.35-0.01-0.47,0c-0.57,0.07-1.21,0.05-1.75-0.11
			c-0.32-0.1-0.71-0.24-1.02-0.35c-0.47-0.18-0.41-0.16-0.72-0.51c0.18,0.3,0.14-0.55,0.17-0.55c-0.03-0.46,0.14-0.56,0.1-1.01
			c-0.02-0.31-0.2-0.63-0.22-0.97c-0.05-0.85-0.3-1.96-0.17-2.8c0.09-0.59,0.58-0.77,0.88-1.31c0.19-0.34,0.4-0.65,0.66-0.97
			c0.11-0.13,0.43-1.14,1.24-2.25c0.9-1.24,1.81-2.08,1.9-2.41c0.07-0.09,0.77-0.68,1.01-1.28c0.05-0.12,0.17-0.7,0.05-0.73
			c-0.12-0.03-0.16,0.29-0.33,0.44c-0.29,0.28-0.74,0.8-0.94,0.89c0,0.02-0.32,0.79-0.33,0.81c-0.16,0.2-0.84,0.54-1.1,1.08
			c-0.53,1.08-1.37,1.63-1.63,2.34c-0.05,0.14-0.52,0.27-0.89,0.67c-0.61,0.65-1.36,1.21-1.42,0.93c-0.06-0.3,0.03-1.01-0.1-1.41
			c-0.09-0.3-0.4-0.8-0.35-1.04C197.29,312.84,197.47,312.56,197.35,311.84z M230.53,318.41c0.18,0.27,0.25,1.84,0.34,2.23
			c0.05,0.21,0.61,1.03,0.65,1.41c0.05,0.43,1,1.12,1,1.12s0.25-0.16,0.3-0.28c0.05-0.12-0.14-0.31-0.25-0.54
			c-0.1-0.2-0.16-0.64-0.27-0.84c-0.24-0.44-0.07-0.32-0.13-0.65c-0.06-0.33-0.34,0.08-0.62-0.44c-0.07-0.13-0.06-0.28-0.12-0.45
			c-0.03-0.08-0.01-0.29-0.08-0.34c-0.11-0.08-0.32,0.02-0.28-0.11c0.03-0.11-0.07-0.84-0.03-0.98c0.04-0.14-0.02-0.75-0.14-1.08
			c-0.38-1.11-0.42-2.44-0.59-2.19C230.21,315.39,230.34,318.14,230.53,318.41z"/>
		<path class="st2" d="M225.19,420.26c-0.15-0.88-0.44-0.59-0.27-1.38c0.05-0.22,0.17-0.43,0.27-0.81c0.11-0.39,0.44-1.04,0.55-1.42
			c0.13-0.48,0-0.69,0.12-1.18c0.12-0.49,0.41-0.7,0.51-1.2c0.06-0.31,0.87-0.79,0.95-1.11c0.13-0.54,0.75-0.98,1.23-1.37
			c0.51-0.42,1.15-1.67,1.51-2.25c0.27-0.44,1.29-1.04,1.92-1.45c1.06-1.17,1.69-2,3.64-2.69c2.02-0.71,3.86-0.5,6.03-0.54
			c1.32-0.03,2.6,0,3.92,0c1.17,0,1.81-0.47,2.97-0.31c1.13,0.15,1.74-0.31,2.83-0.62c0.62-0.18,1.4-0.21,2.08-0.21
			c0.37,0,0.86,0.08,1.17-0.1c-0.08-0.17-0.28,0.03-0.45-0.19c-0.17-0.21,2.16-0.23,3.24-0.35c1.08-0.12,1.6-0.88,2.37-1.03
			c0.77-0.15,3.11-1.51,3.76-1.79c0.37-0.16,1.64-0.71,2.86-1.17c0.48-0.18,0.16-0.24,0.63-0.54c0.47-0.3,1.77-0.55,2.11-0.67
			c0.33-0.12,1.32-0.29,2.2-1.33c0,0,1.14-1.08,1.27-0.78c0.1,0.22,0.09,0.74,0.13,0.93c0.02,0.07,0.04,0.1,0.09,0.04
			c0.3-0.2,2.19-1.09,2.32-0.88c0.14,0.21-1.67,2.44-1.53,2.54c0.14,0.1,0.3,0.06,0.41,0.2c0,0,0.77,0.63,0.89,0.76
			c0.2,0.22,0.86,0.84,0.86,0.84s0.37,0.84,0.43,1.34l0.07,0.37l0.29,0.44c1.04,0.79,1.78,1.52,2.04,1.63
			c0.26,0.1,1.52,0.7,1.8,0.89c0.39,0.26-0.02,0.84-0.35,0.98c-0.11,0.12-0.21,0.26-0.33,0.33c-0.81,0.49-0.99,0.21-1.3,0.26
			l-0.59-0.07c-0.22-0.05-0.27-0.11-0.36-0.14c-0.27-0.09-0.67-0.28-0.96-0.41c-0.29-0.13-1.25-0.86-1.45-0.96
			c-0.19-0.11-0.73-0.36-0.99-0.42c-0.27-0.07-0.48-0.02-0.48-0.02s0.41,0.28,0.53,0.35s0.54,0.39,0.76,0.61s0.87,1,0.87,1
			s0.41,0.18,0.52,0.27c0.17,0.14,0.38,0.34,0.38,0.34s-0.09,0,0.1-0.11c0.19-0.11,0.22-0.08,0.15,0.13
			c-0.07,0.22-0.05,0.13-0.05,0.13s0.23,0.27,0.39,0.5c0.25,0.36,0.36,0.77,0.37,0.78c0.06,0.31-0.17,0.32-0.49-0.07
			c-0.02-0.04-0.22-0.28-0.22-0.28s-0.06-0.08-0.11,0.03c-0.05,0.11,0.05,0.14-0.06,0.22c-0.4,0.19-0.73,0.31-0.98,0.26
			c-0.56-0.12-0.87-0.53-1.32-0.84c-0.85-0.59-1.05-0.78-1.36-0.96c-0.37-0.22-0.49-0.22-0.61,0.73c-0.06,0.48,0.12,0.75,0.05,1.06
			c-0.04,0.2-0.1-0.42-0.16-0.22c-0.14,0.47-0.48,0.97-0.48,0.97l-0.05-0.25c0,0-0.21,0.21-0.36,0.38c-0.39,0.49-0.27,0-0.34-0.2
			c0,0,0.09,0.35-0.36,0.8c-0.1-0.22-0.43,0.26-0.82,0.7c-0.65,0.73-1.84,2.06-1.86,1.82c-0.07-0.71-0.17-0.03-0.17-0.03
			c-0.77,0.58-1.91,2.22-2.71,3.07c-0.09,0.1-0.24,0.1-0.32,0.04c-0.09-0.06-0.3-0.02-0.78,0.39c-0.06,0.08-0.26,0.54-0.32,0.62
			c-0.15,0.22-0.65,0.11-0.76,0.35c-0.09,0.19-0.17,0.38-0.26,0.55c-0.28,0.53-0.5,0.62-0.78,1.2c-0.27,0.55-0.4,1.39-0.44,2.01
			c-0.13,1.9,0.08,3.24,0.23,4.22c0.13,0.85,0.45,1.6,0.53,2.47c0.06,0.63,0.11,1.19,0.33,1.79c0.15,0.41,0.31,0.71,0.44,1.12
			c0.12,0.35,0.54,0.94,0.83,1.13c0.46,0.3,0.95,0.09,1.49,0.19c0.12,0.02,0.1,0.07,0.36,0.19l0.39,0.07
			c0.29,0.14,0.48,0.42,0.54,0.57c0.12,0.3,0,0.34-0.26,0.41c-0.2,0.05-0.71,0.08-0.96,0.09c-0.53,0.02-1.06-0.11-1.54,0.01
			c-0.09,0.02-0.22,0.16-0.47,0.18c-0.37,0.03-0.93-0.01-1.15-0.01c-0.45,0-0.68-0.03-1.13-0.03c-0.7,0-0.72,0.1-1.37-0.04
			c-0.8-0.18-1.88,0.01-2.17-0.2c-0.09-0.06-0.06-0.43-0.23-0.64c-0.28-0.36-0.17-0.51-0.31-0.6c-0.14-0.09-0.27,0.32-0.36,0.09
			c-0.08-0.23-0.67-1.47-0.95-2.05c-0.28-0.58-0.37-0.67-0.64-1.25c-0.15-0.33-0.33-0.62-0.34-0.96c0.16,0.79-0.19-1.05-0.14-0.96
			c-0.29-0.6-0.09-0.04-0.32-0.67c-0.43-1.19-0.27-2.38-0.53-3.63c-0.11-0.51-0.44-0.95-0.55-1.46c-0.05-0.25,0.04-0.68-0.09-0.89
			c-0.14-0.25-0.77-0.49-1.03-0.7c-0.41-0.34-0.82-0.58-1.3-0.83c-0.47-0.26-0.8-0.67-1.3-0.88c-0.51-0.22-0.63-0.1-1.19-0.03
			c-0.91,0.11-1.66-0.16-2.49-0.22c-0.93-0.07-0.73,0.15-0.96,0.13l-0.54-0.04c-0.45,0.04-1.06-0.24-1.51-0.09
			c-0.7,0.22-0.7,1.35-1.03,1.88c-0.84,1.33-2.6,2.87-3.23,3.13c-0.68,0.28-0.97,1.02-1.59,1.45c-0.88,0.6-1.38,1.35-1.85,2.31
			c-0.63,1.3-0.38,2.49,0.18,3.71c0.29,0.64,0.46,1,1.05,1.35c0.28,0.17,0.97-0.04,1.27,0.11c0.16,0.08,0.46,0.28,0.59,0.34
			c0.36,0.17,1.01,0.51,0.73,0.89c-0.35,0.48-1.18,0.05-1.73,0.19c-0.56,0.14-1.03-0.08-1.64-0.08c-0.46,0-1.33,0.05-1.64-0.26
			c-0.19-0.19-0.23-0.31-0.31-0.53c-0.08-0.25-0.12-0.57-0.29-0.8c-0.13-0.18-0.41-0.5-0.47-0.66c-0.1-0.27,0.01-0.64-0.11-0.88
			c-0.2-0.39-0.78-0.98-0.97-1.44c-0.14-0.32,0.01-1.28-0.48-1.35c0.04-0.51,0.12-0.73-0.13-1.05c-0.23-0.31,0.46-0.66,0.64-0.99
			c0.24-0.44,0.47-0.78,0.9-1.12c0.5-0.39,1.01-0.89,1.68-1.35c-1.29,0.45-2.65,1.28-3.5,2.27c-0.76,0.89-1.49,1.92-1.64,3.03
			c-0.13,0.94-0.68,2.47,0.01,2.97c0.3,0.21,0.61,0.24,0.83,0.45c0.15,0.14,0.3,0.48,0.49,0.76c0.07,0.11,0.24,0.22,0.27,0.32
			c0.06,0.17,0.15,0.36,0.07,0.48c-0.07,0.1-0.33,0.21-0.52,0.26c-0.09,0.03-0.35-0.01-0.47,0c-0.57,0.07-1.21,0.05-1.75-0.11
			c-0.32-0.1-0.71-0.24-1.02-0.35c-0.47-0.18-0.41-0.16-0.72-0.51c0.18,0.3,0.14-0.55,0.17-0.55c-0.03-0.46,0.14-0.56,0.1-1.01
			c-0.02-0.31-0.2-0.63-0.22-0.97c-0.05-0.85-0.3-1.96-0.17-2.8c0.09-0.59,0.58-0.77,0.88-1.31c0.19-0.34,0.4-0.65,0.66-0.97
			c0.11-0.13,0.43-1.14,1.24-2.25c0.9-1.24,1.81-2.08,1.9-2.41c0.07-0.09,0.77-0.68,1.01-1.28c0.05-0.12,0.17-0.7,0.05-0.73
			c-0.12-0.03-0.16,0.29-0.33,0.44c-0.29,0.28-0.74,0.8-0.94,0.89c0,0.02-0.32,0.79-0.33,0.81c-0.16,0.2-0.84,0.54-1.1,1.08
			c-0.53,1.08-1.37,1.63-1.63,2.34c-0.05,0.14-0.52,0.27-0.89,0.67c-0.61,0.65-1.36,1.21-1.42,0.93c-0.06-0.3,0.03-1.01-0.1-1.41
			c-0.09-0.3-0.4-0.8-0.35-1.04C225.14,421.27,225.31,420.98,225.19,420.26z M258.37,426.84c0.18,0.27,0.25,1.84,0.34,2.23
			c0.05,0.21,0.61,1.03,0.65,1.41c0.05,0.43,1,1.12,1,1.12s0.25-0.16,0.3-0.28c0.05-0.12-0.14-0.31-0.25-0.54
			c-0.1-0.2-0.16-0.64-0.27-0.84c-0.24-0.44-0.07-0.32-0.13-0.65s-0.34,0.08-0.62-0.44c-0.07-0.13-0.06-0.28-0.12-0.45
			c-0.03-0.08-0.01-0.29-0.08-0.34c-0.11-0.08-0.32,0.02-0.28-0.11c0.03-0.11-0.07-0.84-0.03-0.98c0.04-0.14-0.02-0.75-0.14-1.08
			c-0.38-1.11-0.42-2.44-0.59-2.19C258.05,423.82,258.18,426.56,258.37,426.84z"/>
		<g>
			<path class="st3" d="M136.46,355.47c-0.8-0.1-1.2-0.5-1.9-1.1c-0.6-0.5-0.7-1.4-0.3-2.1c0.9-1.6,2.5-2.2,3.8-3.9
				c-0.4-0.1-1.2-0.3-1.6-0.3c-1.8,0-2.2,1.9-4.7,3c-0.2,0.5-0.5,1-0.7,1.5c-0.2,0.4-0.1,0.9,0.2,1.3c1.3,1.5,3.4,3.3,5.4,3.4
				c1.9,0.1,3-0.3,2.2-1.1C138.36,355.57,137.36,355.57,136.46,355.47z"/>
			<path class="st3" d="M151.06,354.57c-0.3,0.2-0.5,0.3-0.8,0.4c-0.3,0.1-0.5,0.1-0.8,0.1c-0.8-0.1-1.6-0.2-2.3,0.2
				c-0.8,0.5,0.1,1.1,1.7,1.3c0.7,0.1,1.5,0,2.1-0.3c0.5-0.2,0.9-0.4,1.4-0.7c-0.1-0.1-0.3-0.2-0.4-0.3
				C151.66,355.07,151.36,354.87,151.06,354.57z"/>
			<path class="st3" d="M170.36,350.77c-0.5-0.8-2-2.3-2.1-2.6c-0.8-1.7-0.4-3.2-1.8-4.8c-0.1-0.1-0.2-0.3-0.1-0.5
				c0.2-0.5,0.6-1.8,1.3-2.7c0.1-0.2-0.1-0.4-0.3-0.3c-0.7,0.3-1.9,0.9-3,1.8c-0.1,0.1-0.3,0.1-0.4,0.1h-0.2l0,0
				c0.2,0.7,0.4,1.4,0.5,2.1c-0.4-1.1-0.6-1.8-1.1-2.8c-0.6-1-1.9-2.6-2.7-0.4c-0.2,0.6-0.2,1.9-0.1,2.6c-0.3-0.7-0.4-1.5-0.3-2.3
				c0,0-3.4-1.9-9.7-2.3c-9.9-0.6-17.4-4.5-24.6,0c-1.1,0.7-2.2,1.1-3.5,1.4c-2.5,0.5-13,6.4-14.6,8c-2.6,2.6-0.3,3.6,3.4,3.3
				c4.1-0.2,14.6-3.1,16.1-5.7c0.5-0.9,0.8-1.9,0.8-2.9l0,0c0-0.1,0.1-0.2,0.2-0.2c0.1,0,0.2,0.1,0.2,0.2c0,1.1-0.2,2.2-0.7,3.2
				c-0.8,1.6-1.6,1.8-2.6,2.2c-1.4,0.5-2.3,0.4-2.7,1.6c-0.7,2.1-1.4,4.3-2.4,5.2c-0.7,0.7-0.6,1.9,0.1,2.4l0,0
				c1.8-0.9,2.5-2.3,2.9-4.2c0.5-2.1,2.2-3,4.9-2.5c1.5,0.3,4.3,0.3,7.4-3.4c0.8-0.9,1.1-2.3,0.3-3.8l0,0c0-0.1,0-0.2,0.1-0.2
				s0.2,0,0.2,0.1c0.7,1.2,0.9,2.6,0.1,3.9c0.4-0.1,0.8-0.1,1.1,0l11.6,2.3l0,0c0.3-1,0.6-1.9,0.4-3.5c0-0.1,0.1-0.2,0.1-0.2
				c0.1,0,0.2,0,0.2,0.1c0.4,2.3-0.1,3.2-0.1,4.2c0,0,0,0,0,0.1c0.5,3.3,3.5,4.1,5.7,6.6c0.5,0.6,1.5,1.1,2.3,1.2
				c0.9,0.1,1.9,0.2,2.9,0.1c0.7,0,0.9-1.1,0.1-1.3c-0.3-0.1-0.6-0.1-0.9-0.1c-0.9,0-1.8-0.3-2.6-0.9c-1.3-1.1-2.4-2.8-3.2-4.9
				c-0.1-0.3,0-0.6,0.3-0.7c1.7-1.3,1.9-3,1-4.6l0,0c0-0.1,0-0.2,0.1-0.2c0.1,0,0.2,0,0.2,0c1,1.5,0.9,3.2,0.1,4.3
				c-0.1,0.1-0.2,0.2-0.3,0.3c3.4-0.2,7.4-0.7,11.5,1.8c0.5,0.2,1,0.4,1.4,0.5c-1-0.9-0.9-1.9-2.8-2.2l0,0c-0.1,0-0.1-0.1-0.1-0.1
				c0-0.1,0.1-0.1,0.1-0.1c2.6,0.1,2.1,1.9,3.9,2.4l0,0c0.5-0.1,0.9-0.3,1.3-0.7C170.46,351.47,170.56,351.07,170.36,350.77z
				 M165.76,346.97c-0.1,0-0.2-0.1-0.2-0.2c0-0.1,0.1-0.2,0.2-0.2c0.1,0,0.2,0.1,0.2,0.2C165.86,346.87,165.86,346.97,165.76,346.97
				z M166.26,347.47c0.1-0.1,0.2-0.3,0.2-0.4c0-0.3-0.3-0.6-0.6-0.6s-0.6,0.3-0.6,0.6c0,0.1,0,0.2,0.1,0.3c-0.1-0.1-0.1-0.2-0.2-0.3
				c-0.1-0.2-0.2-0.4-0.3-0.6c0.3-0.2,0.6-0.3,1-0.3c0.1,0,0.3,0,0.4,0.1c0.1,0.1,0.2,0.2,0.2,0.3c0.1,0.3,0.2,0.5,0.3,0.7
				C166.66,347.37,166.46,347.47,166.26,347.47z"/>
		</g>
		<g>
			<path class="st3" d="M193.24,396.12c-0.8-0.1-1.2-0.5-1.9-1.1c-0.6-0.5-0.7-1.4-0.3-2.1c0.9-1.6,2.5-2.2,3.8-3.9
				c-0.4-0.1-1.2-0.3-1.6-0.3c-1.8,0-2.2,1.9-4.7,3c-0.2,0.5-0.5,1-0.7,1.5c-0.2,0.4-0.1,0.9,0.2,1.3c1.3,1.5,3.4,3.3,5.4,3.4
				c1.9,0.1,3-0.3,2.2-1.1C195.14,396.22,194.14,396.22,193.24,396.12z"/>
			<path class="st3" d="M207.84,395.22c-0.3,0.2-0.5,0.3-0.8,0.4s-0.5,0.1-0.8,0.1c-0.8-0.1-1.6-0.2-2.3,0.2
				c-0.8,0.5,0.1,1.1,1.7,1.3c0.7,0.1,1.5,0,2.1-0.3c0.5-0.2,0.9-0.4,1.4-0.7c-0.1-0.1-0.3-0.2-0.4-0.3
				C208.44,395.72,208.14,395.52,207.84,395.22z"/>
			<path class="st3" d="M227.14,391.42c-0.5-0.8-2-2.3-2.1-2.6c-0.8-1.7-0.4-3.2-1.8-4.8c-0.1-0.1-0.2-0.3-0.1-0.5
				c0.2-0.5,0.6-1.8,1.3-2.7c0.1-0.2-0.1-0.4-0.3-0.3c-0.7,0.3-1.9,0.9-3,1.8c-0.1,0.1-0.3,0.1-0.4,0.1h-0.2l0,0
				c0.2,0.7,0.4,1.4,0.5,2.1c-0.4-1.1-0.6-1.8-1.1-2.8c-0.6-1-1.9-2.6-2.7-0.4c-0.2,0.6-0.2,1.9-0.1,2.6c-0.3-0.7-0.4-1.5-0.3-2.3
				c0,0-3.4-1.9-9.7-2.3c-9.9-0.6-17.4-4.5-24.6,0c-1.1,0.7-2.2,1.1-3.5,1.4c-2.5,0.5-13,6.4-14.6,8c-2.6,2.6-0.3,3.6,3.4,3.3
				c4.1-0.2,14.6-3.1,16.1-5.7c0.5-0.9,0.8-1.9,0.8-2.9l0,0c0-0.1,0.1-0.2,0.2-0.2c0.1,0,0.2,0.1,0.2,0.2c0,1.1-0.2,2.2-0.7,3.2
				c-0.8,1.6-1.6,1.8-2.6,2.2c-1.4,0.5-2.3,0.4-2.7,1.6c-0.7,2.1-1.4,4.3-2.4,5.2c-0.7,0.7-0.6,1.9,0.1,2.4l0,0
				c1.8-0.9,2.5-2.3,2.9-4.2c0.5-2.1,2.2-3,4.9-2.5c1.5,0.3,4.3,0.3,7.4-3.4c0.8-0.9,1.1-2.3,0.3-3.8l0,0c0-0.1,0-0.2,0.1-0.2
				c0.1,0,0.2,0,0.2,0.1c0.7,1.2,0.9,2.6,0.1,3.9c0.4-0.1,0.8-0.1,1.1,0l11.6,2.3l0,0c0.3-1,0.6-1.9,0.4-3.5c0-0.1,0.1-0.2,0.1-0.2
				c0.1,0,0.2,0,0.2,0.1c0.4,2.3-0.1,3.2-0.1,4.2c0,0,0,0,0,0.1c0.5,3.3,3.5,4.1,5.7,6.6c0.5,0.6,1.5,1.1,2.3,1.2
				c0.9,0.1,1.9,0.2,2.9,0.1c0.7,0,0.9-1.1,0.1-1.3c-0.3-0.1-0.6-0.1-0.9-0.1c-0.9,0-1.8-0.3-2.6-0.9c-1.3-1.1-2.4-2.8-3.2-4.9
				c-0.1-0.3,0-0.6,0.3-0.7c1.7-1.3,1.9-3,1-4.6l0,0c0-0.1,0-0.2,0.1-0.2c0.1,0,0.2,0,0.2,0c1,1.5,0.9,3.2,0.1,4.3
				c-0.1,0.1-0.2,0.2-0.3,0.3c3.4-0.2,7.4-0.7,11.5,1.8c0.5,0.2,1,0.4,1.4,0.5c-1-0.9-0.9-1.9-2.8-2.2l0,0c-0.1,0-0.1-0.1-0.1-0.1
				c0-0.1,0.1-0.1,0.1-0.1c2.6,0.1,2.1,1.9,3.9,2.4l0,0c0.5-0.1,0.9-0.3,1.3-0.7C227.24,392.12,227.34,391.72,227.14,391.42z
				 M222.54,387.62c-0.1,0-0.2-0.1-0.2-0.2c0-0.1,0.1-0.2,0.2-0.2s0.2,0.1,0.2,0.2C222.64,387.52,222.64,387.62,222.54,387.62z
				 M223.04,388.12c0.1-0.1,0.2-0.3,0.2-0.4c0-0.3-0.3-0.6-0.6-0.6c-0.3,0-0.6,0.3-0.6,0.6c0,0.1,0,0.2,0.1,0.3
				c-0.1-0.1-0.1-0.2-0.2-0.3c-0.1-0.2-0.2-0.4-0.3-0.6c0.3-0.2,0.6-0.3,1-0.3c0.1,0,0.3,0,0.4,0.1c0.1,0.1,0.2,0.2,0.2,0.3
				c0.1,0.3,0.2,0.5,0.3,0.7C223.44,388.02,223.24,388.12,223.04,388.12z"/>
		</g>
	</g>
	<g>
		<path class="st4" d="M202.55,336.71c-1.64-1.56-5.9-0.03-9.5,3.43c-0.66,0.62-1.21,1.25-1.74,1.87c0.16-1.25,0.46-2.4,0.85-3.37
			c0.69-1.12,1.64-2.27,2.79-3.37c2.85-2.71,6.1-4.24,8.13-4.02c-0.07-0.53-0.26-1-0.62-1.31c-1.64-1.56-5.9-0.03-9.5,3.43
			c-1.25,1.18-2.23,2.4-2.95,3.58c-0.75-1.22-1.84-2.49-3.18-3.65c-3.74-3.3-8.03-4.7-9.63-3.08c-0.33,0.34-0.52,0.81-0.56,1.34
			c2.06-0.28,5.34,1.12,8.29,3.74c1.8,1.59,3.11,3.33,3.87,4.89c-0.03,0.16-0.03,0.31-0.03,0.44c-0.07,0.31-0.13,0.62-0.2,0.97
			c-0.46-0.5-0.98-1.03-1.54-1.5c-3.74-3.33-8.06-4.74-9.63-3.15c-0.33,0.34-0.52,0.81-0.56,1.34c2.03-0.28,5.34,1.12,8.26,3.74
			c1.41,1.25,2.52,2.55,3.28,3.83c0.33,4.18,2.06,7.38,4.13,7.38c0.49,0,0.98-0.19,1.41-0.53c-1.08-0.84-1.97-2.59-2.43-4.83
			c0.07-0.34,0.07-0.72,0-1.12c0.69-1.53,1.93-3.21,3.57-4.74c2.85-2.71,6.1-4.24,8.13-4.02
			C203.11,337.49,202.91,337.05,202.55,336.71z"/>
	</g>
	<g>
		<path class="st4" d="M317.41,336.23c-1.64-1.56-5.9-0.03-9.5,3.43c-0.66,0.62-1.21,1.25-1.74,1.87c0.16-1.25,0.46-2.4,0.85-3.37
			c0.69-1.12,1.64-2.27,2.79-3.37c2.85-2.71,6.1-4.24,8.13-4.02c-0.07-0.53-0.26-1-0.62-1.31c-1.64-1.56-5.9-0.03-9.5,3.43
			c-1.25,1.18-2.23,2.4-2.95,3.58c-0.75-1.22-1.84-2.49-3.18-3.65c-3.74-3.3-8.03-4.7-9.63-3.08c-0.33,0.34-0.52,0.81-0.56,1.34
			c2.06-0.28,5.34,1.12,8.29,3.74c1.8,1.59,3.11,3.33,3.87,4.89c-0.03,0.16-0.03,0.31-0.03,0.44c-0.07,0.31-0.13,0.62-0.2,0.97
			c-0.46-0.5-0.98-1.03-1.54-1.5c-3.74-3.33-8.06-4.74-9.63-3.15c-0.33,0.34-0.52,0.81-0.56,1.34c2.03-0.28,5.34,1.12,8.26,3.74
			c1.41,1.25,2.52,2.55,3.28,3.83c0.33,4.18,2.06,7.38,4.13,7.38c0.49,0,0.98-0.19,1.41-0.53c-1.08-0.84-1.97-2.59-2.43-4.83
			c0.07-0.34,0.07-0.72,0-1.12c0.69-1.53,1.93-3.21,3.57-4.74c2.85-2.71,6.1-4.24,8.13-4.02
			C317.96,337.01,317.77,336.57,317.41,336.23z"/>
	</g>
	<g>
		<path class="st4" d="M510.07,372.59c-1.64-1.56-5.9-0.03-9.5,3.43c-0.66,0.62-1.21,1.25-1.74,1.87c0.16-1.25,0.46-2.4,0.85-3.37
			c0.69-1.12,1.64-2.27,2.79-3.37c2.85-2.71,6.1-4.24,8.13-4.02c-0.07-0.53-0.26-1-0.62-1.31c-1.64-1.56-5.9-0.03-9.5,3.43
			c-1.25,1.18-2.23,2.4-2.95,3.58c-0.75-1.22-1.84-2.49-3.18-3.65c-3.74-3.3-8.03-4.7-9.63-3.08c-0.33,0.34-0.52,0.81-0.56,1.34
			c2.06-0.28,5.34,1.12,8.29,3.74c1.8,1.59,3.11,3.33,3.87,4.89c-0.03,0.16-0.03,0.31-0.03,0.44c-0.07,0.31-0.13,0.62-0.2,0.97
			c-0.46-0.5-0.98-1.03-1.54-1.5c-3.74-3.33-8.06-4.74-9.63-3.15c-0.33,0.34-0.52,0.81-0.56,1.34c2.03-0.28,5.34,1.12,8.26,3.74
			c1.41,1.25,2.52,2.55,3.28,3.83c0.33,4.18,2.06,7.38,4.13,7.38c0.49,0,0.98-0.19,1.41-0.53c-1.08-0.84-1.97-2.59-2.43-4.83
			c0.07-0.34,0.07-0.72,0-1.12c0.69-1.53,1.93-3.21,3.57-4.74c2.85-2.71,6.1-4.24,8.13-4.02
			C510.63,373.37,510.43,372.93,510.07,372.59z"/>
	</g>
	<g>
		<path class="st4" d="M335.48,419.08c-1.64-1.56-5.9-0.03-9.5,3.43c-0.66,0.62-1.21,1.25-1.74,1.87c0.16-1.25,0.46-2.4,0.85-3.37
			c0.69-1.12,1.64-2.27,2.79-3.37c2.85-2.71,6.1-4.24,8.13-4.02c-0.07-0.53-0.26-1-0.62-1.31c-1.64-1.56-5.9-0.03-9.5,3.43
			c-1.25,1.18-2.23,2.4-2.95,3.58c-0.75-1.22-1.84-2.49-3.18-3.65c-3.74-3.3-8.03-4.7-9.63-3.08c-0.33,0.34-0.52,0.81-0.56,1.34
			c2.06-0.28,5.34,1.12,8.29,3.74c1.8,1.59,3.11,3.33,3.87,4.89c-0.03,0.16-0.03,0.31-0.03,0.44c-0.07,0.31-0.13,0.62-0.2,0.97
			c-0.46-0.5-0.98-1.03-1.54-1.5c-3.74-3.33-8.06-4.74-9.63-3.15c-0.33,0.34-0.52,0.81-0.56,1.34c2.03-0.28,5.34,1.12,8.26,3.74
			c1.41,1.25,2.52,2.55,3.28,3.83c0.33,4.18,2.06,7.38,4.13,7.38c0.49,0,0.98-0.19,1.41-0.53c-1.08-0.84-1.97-2.59-2.43-4.83
			c0.07-0.34,0.07-0.72,0-1.12c0.69-1.53,1.93-3.21,3.57-4.74c2.85-2.71,6.1-4.24,8.13-4.02
			C336.03,419.86,335.84,419.42,335.48,419.08z"/>
	</g>
</g>
</svg>
